<svg xmlns="http://www.w3.org/2000/svg" version="1.1" xmlns:xlink="http://www.w3.org/1999/xlink" xmlns:svgjs="http://svgjs.dev/svgjs" width="1500" height="405" viewBox="0 0 1500 405"><g transform="matrix(1,0,0,1,-0.9090909090909918,0.12274013809337703)"><svg viewBox="0 0 396 107" data-background-color="#ffffff" preserveAspectRatio="xMidYMid meet" height="405" width="1500" xmlns="http://www.w3.org/2000/svg" xmlns:xlink="http://www.w3.org/1999/xlink"><g id="tight-bounds" transform="matrix(1,0,0,1,0.2400000000000091,-0.03242764142220267)"><svg viewBox="0 0 395.52 107.06485528284442" height="107.06485528284442" width="395.52"><g><svg viewBox="0 0 613.6906430206917 166.12231968913355" height="107.06485528284442" width="395.52"><g transform="matrix(1,0,0,1,218.1706430206917,27.94297403622734)"><svg viewBox="0 0 395.52 110.23637161667887" height="110.23637161667887" width="395.52"><g id="textblocktransform"><svg viewBox="0 0 395.52 110.23637161667887" height="110.23637161667887" width="395.52" id="textblock"><g><svg viewBox="0 0 395.52 110.23637161667887" height="110.23637161667887" width="395.52"><g transform="matrix(1,0,0,1,0,0)"><svg width="395.52" viewBox="3.25 -35.5 133.48 37.21" height="110.23637161667887" data-palette-color="#0369a1"><path d="M27.76-7.01L27.76 0 3.25 0 3.25-35.01 10.25-35.01 10.25-7.01 27.76-7.01ZM38.89-2.49L38.89-2.49Q38.89-1.61 38.57-0.84 38.25-0.07 37.69 0.49 37.13 1.05 36.37 1.38 35.62 1.71 34.74 1.71L34.74 1.71Q33.88 1.71 33.12 1.38 32.35 1.05 31.77 0.49 31.2-0.07 30.87-0.84 30.54-1.61 30.54-2.49L30.54-2.49Q30.54-3.34 30.87-4.1 31.2-4.86 31.77-5.42 32.35-5.98 33.12-6.31 33.88-6.64 34.74-6.64L34.74-6.64Q35.62-6.64 36.37-6.31 37.13-5.98 37.69-5.42 38.25-4.86 38.57-4.1 38.89-3.34 38.89-2.49ZM79.29-25L79.29 0 72.31 0 72.31-25Q72.31-25.73 72.03-26.37 71.75-27 71.27-27.48 70.8-27.95 70.16-28.22 69.53-28.49 68.79-28.49L68.79-28.49Q68.06-28.49 67.43-28.22 66.79-27.95 66.32-27.48 65.84-27 65.57-26.37 65.3-25.73 65.3-25L65.3-25 65.3 0 58.3 0 58.3-25Q58.3-25.73 58.03-26.37 57.76-27 57.28-27.48 56.81-27.95 56.17-28.22 55.54-28.49 54.8-28.49L54.8-28.49Q54.07-28.49 53.44-28.22 52.8-27.95 52.33-27.48 51.85-27 51.58-26.37 51.31-25.73 51.31-25L51.31-25 51.31 0 44.31 0 44.31-25Q44.31-27.17 45.12-29.09 45.94-31.01 47.37-32.43 48.8-33.86 50.72-34.68 52.63-35.5 54.8-35.5L54.8-35.5Q56.76-35.5 58.56-34.8 60.37-34.11 61.81-32.79L61.81-32.79Q63.25-34.11 65.05-34.8 66.84-35.5 68.79-35.5L68.79-35.5Q70.97-35.5 72.88-34.68 74.8-33.86 76.23-32.43 77.66-31.01 78.47-29.09 79.29-27.17 79.29-25L79.29-25ZM93.03-2.49L93.03-2.49Q93.03-1.61 92.72-0.84 92.4-0.07 91.84 0.49 91.28 1.05 90.52 1.38 89.76 1.71 88.88 1.71L88.88 1.71Q88.03 1.71 87.26 1.38 86.49 1.05 85.92 0.49 85.34-0.07 85.01-0.84 84.68-1.61 84.68-2.49L84.68-2.49Q84.68-3.34 85.01-4.1 85.34-4.86 85.92-5.42 86.49-5.98 87.26-6.31 88.03-6.64 88.88-6.64L88.88-6.64Q89.76-6.64 90.52-6.31 91.28-5.98 91.84-5.42 92.4-4.86 92.72-4.1 93.03-3.34 93.03-2.49ZM96.65-24.51L96.65-24.51Q96.65-26.68 97.48-28.59 98.31-30.49 99.73-31.92 101.16-33.35 103.07-34.18 104.97-35.01 107.14-35.01L107.14-35.01 123.21-35.01 123.21-28 107.14-28Q106.41-28 105.78-27.73 105.14-27.47 104.67-26.99 104.19-26.51 103.92-25.88 103.65-25.24 103.65-24.51L103.65-24.51Q103.65-23.78 103.92-23.13 104.19-22.49 104.67-22.01 105.14-21.53 105.78-21.26 106.41-21 107.14-21L107.14-21 114.15-21Q116.32-21 118.24-20.18 120.16-19.36 121.58-17.93 123.01-16.5 123.83-14.59 124.65-12.67 124.65-10.5L124.65-10.5Q124.65-8.33 123.83-6.42 123.01-4.52 121.58-3.09 120.16-1.66 118.24-0.83 116.32 0 114.15 0L114.15 0 98.6 0 98.6-7.01 114.15-7.01Q114.88-7.01 115.52-7.28 116.15-7.54 116.63-8.02 117.1-8.5 117.37-9.13 117.64-9.77 117.64-10.5L117.64-10.5Q117.64-11.23 117.37-11.87 117.1-12.5 116.63-12.98 116.15-13.45 115.52-13.72 114.88-13.99 114.15-13.99L114.15-13.99 107.14-13.99Q104.97-13.99 103.07-14.82 101.16-15.65 99.73-17.08 98.31-18.51 97.48-20.42 96.65-22.34 96.65-24.51ZM136.73-2.49L136.73-2.49Q136.73-1.61 136.41-0.84 136.1-0.07 135.53 0.49 134.97 1.05 134.22 1.38 133.46 1.71 132.58 1.71L132.58 1.71Q131.73 1.71 130.96 1.38 130.19 1.05 129.61 0.49 129.04-0.07 128.71-0.84 128.38-1.61 128.38-2.49L128.38-2.49Q128.38-3.34 128.71-4.1 129.04-4.86 129.61-5.42 130.19-5.98 130.96-6.31 131.73-6.64 132.58-6.64L132.58-6.64Q133.46-6.64 134.22-6.31 134.97-5.98 135.53-5.42 136.1-4.86 136.41-4.1 136.73-3.34 136.73-2.49Z" opacity="1" transform="matrix(1,0,0,1,0,0)" fill="#0369a1" class="wordmark-text-0" data-fill-palette-color="primary" id="text-0"></path></svg></g></svg></g></svg></g></svg></g><g><svg viewBox="0 0 166.12231968913355 166.12231968913355" height="166.12231968913355" width="166.12231968913355"><g><svg></svg></g><g id="icon-0"><svg viewBox="0 0 166.12231968913355 166.12231968913355" height="166.12231968913355" width="166.12231968913355"><g><path d="M0 83.061c0-45.873 37.188-83.061 83.061-83.061 45.873 0 83.061 37.188 83.061 83.061 0 45.873-37.188 83.061-83.061 83.061-45.873 0-83.061-37.188-83.061-83.061zM83.061 156.181c40.383 0 73.12-32.737 73.12-73.12 0-40.383-32.737-73.12-73.12-73.12-40.383 0-73.12 32.737-73.12 73.12 0 40.383 32.737 73.12 73.12 73.12z" data-fill-palette-color="accent" fill="#0369a1" stroke="transparent"></path><ellipse rx="82.2305482461211" ry="82.2305482461211" cx="83.06115984456677" cy="83.06115984456677" fill="#0369a1" stroke="transparent" stroke-width="0" fill-opacity="1" data-fill-palette-color="accent"></ellipse></g><g transform="matrix(1,0,0,1,39.01019331286799,40.98555548654716)"><svg viewBox="0 0 88.10193306339757 84.15120871603922" height="84.15120871603922" width="88.10193306339757"><g><svg xmlns="http://www.w3.org/2000/svg" xmlns:xlink="http://www.w3.org/1999/xlink" version="1.1" x="0" y="0" viewBox="5.499999999999999 7.776000121378938 89.73599999999999 85.71199975724213" enable-background="new 0 0 100 100" xml:space="preserve" height="84.15120871603922" width="88.10193306339757" class="icon-cg-0" data-fill-palette-color="quaternary" id="cg-0"><g fill="#ffffff" data-fill-palette-color="quaternary"><circle cx="48.304" cy="15.633" r="7.9" fill="#ffffff" data-fill-palette-color="quaternary"></circle><circle cx="73.069" cy="25.843" r="7.9" fill="#ffffff" data-fill-palette-color="quaternary"></circle><path d="M83.365 62.441c-6.565 0-11.874-5.307-11.874-11.862 0-6.559 5.314-11.874 11.874-11.87 6.555-0.002 11.871 5.312 11.871 11.87C95.236 57.133 89.92 62.441 83.365 62.441z" fill="#ffffff" data-fill-palette-color="quaternary"></path><circle cx="73.152" cy="75.339" r="7.9" fill="#ffffff" data-fill-palette-color="quaternary"></circle><circle cx="48.42" cy="85.631" r="7.9" fill="#ffffff" data-fill-palette-color="quaternary"></circle><circle cx="23.655" cy="75.421" r="7.9" fill="#ffffff" data-fill-palette-color="quaternary"></circle><path d="M13.363 42.835c4.345 0 7.855 3.515 7.857 7.855 0 4.345-3.519 7.863-7.857 7.859-4.345 0-7.863-3.519-7.863-7.859S9.022 42.835 13.363 42.835z" fill="#ffffff" data-fill-palette-color="quaternary"></path><path d="M29.127 20.369c3.072 3.074 3.068 8.04 0 11.111-3.068 3.072-8.045 3.072-11.113 0.002-3.07-3.07-3.07-8.047-0.002-11.117C21.082 17.296 26.059 17.302 29.127 20.369z" fill="#ffffff" data-fill-palette-color="quaternary"></path></g></svg></g></svg></g></svg></g></svg></g></svg></g><defs></defs></svg><rect width="395.52" height="107.06485528284442" fill="none" stroke="none" visibility="hidden"></rect></g></svg></g></svg>