<svg xmlns="http://www.w3.org/2000/svg" version="1.1" xmlns:xlink="http://www.w3.org/1999/xlink" xmlns:svgjs="http://svgjs.dev/svgjs" width="1500" height="401" viewBox="0 0 1500 401"><g transform="matrix(1,0,0,1,-0.9090909090909918,-0.25682525338999085)"><svg viewBox="0 0 396 106" data-background-color="#ffffff" preserveAspectRatio="xMidYMid meet" height="401" width="1500" xmlns="http://www.w3.org/2000/svg" xmlns:xlink="http://www.w3.org/1999/xlink"><g id="tight-bounds" transform="matrix(1,0,0,1,0.2400000000000091,0.0678889697240379)"><svg viewBox="0 0 395.52 105.86422206055191" height="105.86422206055191" width="395.52"><g><svg viewBox="0 0 613.4501363094402 164.1950380596137" height="105.86422206055191" width="395.52"><g transform="matrix(1,0,0,1,217.9301363094402,0)"><svg viewBox="0 0 395.52 164.1950380596137" height="164.1950380596137" width="395.52"><g id="textblocktransform"><svg viewBox="0 0 395.52 164.1950380596137" height="164.1950380596137" width="395.52" id="textblock"><g><svg viewBox="0 0 395.52 120.6730643015521" height="120.6730643015521" width="395.52"><g transform="matrix(1,0,0,1,0,0)"><svg width="395.52" viewBox="3.85 -34 112.74000000000001 34.4" height="120.6730643015521" data-palette-color="#2257bf"><path d="M22.25-3.65L22.25 0 3.85 0 3.85-33.7 7.9-33.7 7.9-3.65 22.25-3.65ZM30.1-4.65Q30.95-3.8 30.95-2.55 30.95-1.3 30.1-0.45 29.25 0.4 28 0.4 26.75 0.4 25.9-0.45 25.05-1.3 25.05-2.55 25.05-3.8 25.9-4.65 26.75-5.5 28-5.5 29.25-5.5 30.1-4.65ZM40.65-13.3L39.7 0 35.65 0 38.1-33.7 43.25-33.7 47.7-21.4 53.1-5.7Q56-13.9 58.8-21.4L58.8-21.4 63.45-33.7 68.59-33.7 71.55 0 67.5 0 66.34-13.3 65.15-28.25Q62.5-20.85 59.7-13.3L59.7-13.3 55-0.75 51.15-0.75 46.7-13.3 41.6-27.95Q41.6-26 40.65-13.3L40.65-13.3ZM81.24-4.65Q82.09-3.8 82.09-2.55 82.09-1.3 81.24-0.45 80.39 0.4 79.14 0.4 77.89 0.4 77.04-0.45 76.19-1.3 76.19-2.55 76.19-3.8 77.04-4.65 77.89-5.5 79.14-5.5 80.39-5.5 81.24-4.65ZM106.64-8.95L106.64-8.95Q106.64-4.5 103.59-2.08 100.54 0.35 95.74 0.35L95.74 0.35Q90.44 0.35 86.74-1.8L86.74-1.8 86.74-6.15Q90.39-3.4 95.64-3.4L95.64-3.4Q98.79-3.4 100.59-4.8 102.39-6.2 102.39-8.85L102.39-8.85Q102.39-9.95 101.97-10.83 101.54-11.7 100.57-12.43 99.59-13.15 98.72-13.63 97.84-14.1 96.34-14.8L96.34-14.8Q96.04-14.95 95.44-15.2L95.44-15.2Q93.29-16.15 92.17-16.75 91.04-17.35 89.52-18.53 87.99-19.7 87.29-21.25 86.59-22.8 86.59-24.85L86.59-24.85Q86.59-29.15 89.67-31.58 92.74-34 97.39-34L97.39-34Q101.74-34 104.79-32.45L104.79-32.45 104.79-28.2Q101.74-30.2 97.49-30.2L97.49-30.2Q94.44-30.2 92.64-28.78 90.84-27.35 90.84-25.05L90.84-25.05Q90.84-23.85 91.32-22.9 91.79-21.95 92.99-21.13 94.19-20.3 95.04-19.88 95.89-19.45 97.69-18.65L97.69-18.65Q99.39-17.9 100.29-17.48 101.19-17.05 102.62-16.13 104.04-15.2 104.77-14.33 105.49-13.45 106.07-12.03 106.64-10.6 106.64-8.95ZM115.74-4.65Q116.59-3.8 116.59-2.55 116.59-1.3 115.74-0.45 114.89 0.4 113.64 0.4 112.39 0.4 111.54-0.45 110.69-1.3 110.69-2.55 110.69-3.8 111.54-4.65 112.39-5.5 113.64-5.5 114.89-5.5 115.74-4.65Z" opacity="1" transform="matrix(1,0,0,1,0,0)" fill="#2257bf" class="wordmark-text-0" data-fill-palette-color="primary" id="text-0"></path></svg></g></svg></g><g transform="matrix(1,0,0,1,0,149.16107862960533)"><svg viewBox="0 0 375.74399999999997 15.033959430008382" height="15.033959430008382" width="375.74399999999997"><g transform="matrix(1,0,0,1,0,0)"><svg width="375.74399999999997" viewBox="0 -35.8 894.69 35.8" height="15.033959430008382" data-palette-color="#2257bf"><path d="M26.7-2.15L31.55-2.15 31.55 0 0 0 0-2.15 4.85-2.15 4.85-34.95 10.75-34.95 10.75-5.6 26.7-5.6 26.7-2.15ZM28.3-2.15L33.15-2.15 33.15-34.95 57.7-34.95 57.7-29.4 39.05-29.4 39.05-20.15 55.8-20.15 55.8-14.9 39.05-14.9 39.05-5.55 58.3-5.55 58.3-2.15 63.15-2.15 63.15 0 28.3 0 28.3-2.15ZM97.15-2.15L102.95-2.15 102.95 0 91.8 0 88.3-7.95 70.8-7.95 67.3 0 56.15 0 56.15-2.15 61.95-2.15 76.4-34.95 82.7-34.95 97.15-2.15ZM73.2-13.4L85.9-13.4 79.55-27.8 73.2-13.4ZM130.89-2.15L135.74-2.15 135.74 0 124.94 0 116.59-11.75 108.84-11.75 108.84 0 98.09 0 98.09-2.15 102.94-2.15 102.94-34.95 115.94-34.95Q123.94-34.95 127.39-32.25 130.84-29.55 130.84-23.6L130.84-23.6Q130.84-14.95 123.29-12.7L123.29-12.7 130.89-2.15ZM116.19-17.1Q121.19-17.1 122.99-18.65 124.79-20.2 124.79-23.63 124.79-27.05 122.94-28.33 121.09-29.6 116.34-29.6L116.34-29.6 108.84-29.6 108.84-17.1 116.19-17.1ZM134.49-2.15L139.34-2.15 139.34-34.95 145.24-34.95 165.54-8.85 165.54-34.95 171.44-34.95 171.44-2.15 176.29-2.15 176.29 0 165.04 0 145.24-25.5 145.24 0 134.49 0 134.49-2.15ZM176.29-2.15L181.14-2.15 181.14-34.95 187.04-34.95 187.04-2.15 191.89-2.15 191.89 0 176.29 0 176.29-2.15ZM191.89-2.15L196.74-2.15 196.74-34.95 202.64-34.95 222.94-8.85 222.94-34.95 228.84-34.95 228.84-2.15 233.69-2.15 233.69 0 222.44 0 202.64-25.5 202.64 0 191.89 0 191.89-2.15ZM264.13-2.15L271.53-2.15 271.53 0 233.68 0 233.68-2.15 245.78-2.15Q241.43-4.35 238.86-8.6 236.28-12.85 236.28-18.2L236.28-18.2Q236.28-25.85 241.58-30.83 246.88-35.8 254.46-35.8 262.03-35.8 267.03-31.4L267.03-31.4 263.88-26.9Q261.83-28.65 259.76-29.33 257.68-30 254.93-30L254.93-30Q249.58-30 246.01-26.8 242.43-23.6 242.43-18.05 242.43-12.5 245.93-9.13 249.43-5.75 254.41-5.75 259.38-5.75 262.73-7.9L262.73-7.9 262.73-17.5 268.63-17.5 268.63-5.55Q266.78-3.5 264.13-2.15L264.13-2.15ZM271.53-2.15L285.23-2.15 285.23 0 271.53 0 271.53-2.15ZM329.53-2.15L334.38-2.15 334.38 0 323.63 0 323.63-27.3 311.43-3.05 308.13-3.05 295.98-27.3 295.98 0 285.23 0 285.23-2.15 290.08-2.15 290.08-34.95 299.28-34.95 309.83-13 320.38-34.95 329.53-34.95 329.53-2.15ZM370.53-2.15L376.33-2.15 376.33 0 365.18 0 361.68-7.95 344.18-7.95 340.68 0 329.53 0 329.53-2.15 335.33-2.15 349.78-34.95 356.08-34.95 370.53-2.15ZM346.58-13.4L359.28-13.4 352.93-27.8 346.58-13.4ZM371.47-2.15L376.32-2.15 376.32-34.95 382.22-34.95 402.52-8.85 402.52-34.95 408.42-34.95 408.42-2.15 413.27-2.15 413.27 0 402.02 0 382.22-25.5 382.22 0 371.47 0 371.47-2.15ZM449.42-2.15L455.22-2.15 455.22 0 444.07 0 440.57-7.95 423.07-7.95 419.57 0 408.42 0 408.42-2.15 414.22-2.15 428.67-34.95 434.97-34.95 449.42-2.15ZM425.47-13.4L438.17-13.4 431.82-27.8 425.47-13.4ZM480.82-2.15L488.22-2.15 488.22 0 450.37 0 450.37-2.15 462.47-2.15Q458.12-4.35 455.54-8.6 452.97-12.85 452.97-18.2L452.97-18.2Q452.97-25.85 458.27-30.83 463.57-35.8 471.14-35.8 478.72-35.8 483.72-31.4L483.72-31.4 480.57-26.9Q478.52-28.65 476.44-29.33 474.37-30 471.62-30L471.62-30Q466.27-30 462.69-26.8 459.12-23.6 459.12-18.05 459.12-12.5 462.62-9.13 466.12-5.75 471.09-5.75 476.07-5.75 479.42-7.9L479.42-7.9 479.42-17.5 485.32-17.5 485.32-5.55Q483.47-3.5 480.82-2.15L480.82-2.15ZM488.22-2.15L493.07-2.15 493.07-34.95 517.62-34.95 517.62-29.4 498.97-29.4 498.97-20.15 515.72-20.15 515.72-14.9 498.97-14.9 498.97-5.55 518.22-5.55 518.22-2.15 523.07-2.15 523.07 0 488.22 0 488.22-2.15ZM565.21-2.15L570.06-2.15 570.06 0 559.31 0 559.31-27.3 547.11-3.05 543.81-3.05 531.66-27.3 531.66 0 520.91 0 520.91-2.15 525.76-2.15 525.76-34.95 534.96-34.95 545.51-13 556.06-34.95 565.21-34.95 565.21-2.15ZM570.06-2.15L574.91-2.15 574.91-34.95 599.46-34.95 599.46-29.4 580.81-29.4 580.81-20.15 597.56-20.15 597.56-14.9 580.81-14.9 580.81-5.55 600.06-5.55 600.06-2.15 604.91-2.15 604.91 0 570.06 0 570.06-2.15ZM602.76-2.15L607.61-2.15 607.61-34.95 613.51-34.95 633.81-8.85 633.81-34.95 639.71-34.95 639.71-2.15 644.56-2.15 644.56 0 633.31 0 613.51-25.5 613.51 0 602.76 0 602.76-2.15ZM662.6-2.15L674.75-2.15 674.75 0 644.55 0 644.55-2.15 656.7-2.15 656.7-29.55 646.1-29.55 646.1-34.95 673.2-34.95 673.2-29.55 662.6-29.55 662.6-2.15ZM674.75-2.15L688.45-2.15 688.45 0 674.75 0 674.75-2.15ZM713.7-2.15L719.95-2.15 719.95 0 688.45 0 688.45-2.15 694.85-2.15Q692.45-3.4 690.45-5.25L690.45-5.25 694.15-9.7Q699.45-5.1 705.15-5.1L705.15-5.1Q708-5.1 709.67-6.33 711.35-7.55 711.35-9.58 711.35-11.6 709.77-12.73 708.2-13.85 704.35-14.78 700.5-15.7 698.5-16.48 696.5-17.25 694.95-18.5L694.95-18.5Q691.85-20.85 691.85-25.7 691.85-30.55 695.37-33.18 698.9-35.8 704.1-35.8L704.1-35.8Q707.45-35.8 710.75-34.7 714.05-33.6 716.45-31.6L716.45-31.6 713.3-27.15Q711.75-28.55 709.1-29.45 706.45-30.35 703.87-30.35 701.3-30.35 699.65-29.3 698-28.25 698-26.13 698-24 699.65-22.88 701.3-21.75 706.67-20.45 712.05-19.15 714.77-16.8 717.5-14.45 717.5-10.2L717.5-10.2Q717.5-5.05 713.7-2.15L713.7-2.15ZM719.95-2.15L732.55-2.15 732.55-13.8 719.55-34.95 726-34.95 735.55-19.05 745.1-34.95 751.55-34.95 738.55-13.8 738.55-2.15 751.15-2.15 751.15 0 719.95 0 719.95-2.15ZM776.39-2.15L782.64-2.15 782.64 0 751.14 0 751.14-2.15 757.54-2.15Q755.14-3.4 753.14-5.25L753.14-5.25 756.84-9.7Q762.14-5.1 767.84-5.1L767.84-5.1Q770.69-5.1 772.37-6.33 774.04-7.55 774.04-9.58 774.04-11.6 772.47-12.73 770.89-13.85 767.04-14.78 763.19-15.7 761.19-16.48 759.19-17.25 757.64-18.5L757.64-18.5Q754.54-20.85 754.54-25.7 754.54-30.55 758.07-33.18 761.59-35.8 766.79-35.8L766.79-35.8Q770.14-35.8 773.44-34.7 776.74-33.6 779.14-31.6L779.14-31.6 775.99-27.15Q774.44-28.55 771.79-29.45 769.14-30.35 766.57-30.35 763.99-30.35 762.34-29.3 760.69-28.25 760.69-26.13 760.69-24 762.34-22.88 763.99-21.75 769.37-20.45 774.74-19.15 777.47-16.8 780.19-14.45 780.19-10.2L780.19-10.2Q780.19-5.05 776.39-2.15L776.39-2.15ZM800.69-2.15L812.84-2.15 812.84 0 782.64 0 782.64-2.15 794.79-2.15 794.79-29.55 784.19-29.55 784.19-34.95 811.29-34.95 811.29-29.55 800.69-29.55 800.69-2.15ZM812.84-2.15L817.69-2.15 817.69-34.95 842.24-34.95 842.24-29.4 823.59-29.4 823.59-20.15 840.34-20.15 840.34-14.9 823.59-14.9 823.59-5.55 842.84-5.55 842.84-2.15 847.69-2.15 847.69 0 812.84 0 812.84-2.15ZM889.84-2.15L894.69-2.15 894.69 0 883.94 0 883.94-27.3 871.74-3.05 868.44-3.05 856.29-27.3 856.29 0 845.54 0 845.54-2.15 850.39-2.15 850.39-34.95 859.59-34.95 870.14-13 880.69-34.95 889.84-34.95 889.84-2.15Z" opacity="1" transform="matrix(1,0,0,1,0,0)" fill="#2257bf" class="slogan-text-1" data-fill-palette-color="secondary" id="text-1"></path></svg></g></svg></g></svg></g></svg></g><g transform="matrix(1,0,0,1,0,1.6204652031399576)"><svg viewBox="0 0 160.95410765333378 160.95410765333378" height="160.95410765333378" width="160.95410765333378"><g><svg></svg></g><g id="icon-0"><svg viewBox="0 0 160.95410765333378 160.95410765333378" height="160.95410765333378" width="160.95410765333378"><g><path d="M0 80.477c0-44.446 36.031-80.477 80.477-80.477 44.446 0 80.477 36.031 80.477 80.477 0 44.446-36.031 80.477-80.477 80.477-44.446 0-80.477-36.031-80.477-80.477zM80.477 150.072c38.436 0 69.595-31.159 69.595-69.595 0-38.436-31.159-69.595-69.595-69.595-38.436 0-69.595 31.159-69.595 69.595 0 38.436 31.159 69.595 69.595 69.595z" data-fill-palette-color="accent" fill="#2257bf" stroke="transparent"></path><ellipse rx="79.67228328840022" ry="79.67228328840022" cx="80.47705382666689" cy="80.47705382666689" fill="#2257bf" stroke="transparent" stroke-width="0" fill-opacity="1" data-fill-palette-color="accent"></ellipse></g><g transform="matrix(1,0,0,1,42.664671089991955,42.664671089991955)"><svg viewBox="0 0 75.62476547334987 75.62476547334987" height="75.62476547334987" width="75.62476547334987"><g><svg xmlns="http://www.w3.org/2000/svg" xmlns:xlink="http://www.w3.org/1999/xlink" version="1.1" x="0" y="0" viewBox="0 0 64 64" style="enable-background:new 0 0 64 64;" xml:space="preserve" height="75.62476547334987" width="75.62476547334987" class="icon-cg-0" data-fill-palette-color="quaternary" id="cg-0"><g fill="#ffffff" data-fill-palette-color="quaternary"><path d="M50.995 41.1L53 21C53 9.42 43.58 0 32 0c-6.191 0-11.747 2.709-15.593 7H12v2h2.809c-2.391 3.424-3.806 7.589-3.805 12.1l2 20c0.018 0.181 0.085 0.354 0.195 0.5l12 16c0.188 0.252 0.485 0.4 0.8 0.4h12c0.315 0 0.611-0.148 0.8-0.4l12-16C50.91 41.454 50.977 41.281 50.995 41.1zM37.5 56h-11L14.967 40.623 13 21c0-4.548 1.61-8.726 4.285-12h12.301l-1.293 1.293 1.414 1.414 3-3c0.391-0.391 0.391-1.023 0-1.414l-3-3-1.414 1.414L29.586 7H19.2c3.381-3.094 7.867-5 12.8-5 10.477 0 19 8.523 19.005 18.9l-1.972 19.723L37.5 56z" fill="#ffffff" data-fill-palette-color="quaternary"></path><path d="M40 12c-4.288 0-8.59 5.144-8.771 5.363C30.163 18.653 26.786 22 24 22c-3.038 0-5-1.57-5-4s1.962-4 5-4c1.88 0 3.941 1.48 5.339 2.721l1.328-1.495C29.01 13.754 26.508 12 24 12c-4.122 0-7 2.467-7 6s2.878 6 7 6c4.288 0 8.59-5.144 8.771-5.363C33.837 17.347 37.214 14 40 14c3.038 0 5 1.57 5 4s-1.962 4-5 4c-1.877 0-3.938-1.478-5.335-2.718l-1.327 1.496C34.994 22.248 37.495 24 40 24c4.122 0 7-2.467 7-6S44.122 12 40 12z" fill="#ffffff" data-fill-palette-color="quaternary"></path><path d="M0.628 62.071C0.249 62.224 0 62.591 0 63v1h2v-0.323l19.372-7.749-0.743-1.857L0.628 62.071z" fill="#ffffff" data-fill-palette-color="quaternary"></path><path d="M63.372 62.071l-20-8-0.743 1.857L62 63.677V64h2v-1C64 62.591 63.751 62.224 63.372 62.071z" fill="#ffffff" data-fill-palette-color="quaternary"></path><path d="M31.293 23.293l-3 3 1.414 1.414L31 26.414V34h2v-7.586l1.293 1.293 1.414-1.414-3-3C32.316 22.902 31.684 22.902 31.293 23.293z" fill="#ffffff" data-fill-palette-color="quaternary"></path><path d="M7.293 16.293l1.414 1.414 3-3c0.391-0.391 0.391-1.023 0-1.414l-3-3-1.414 1.414L8.586 13H4v2h4.586L7.293 16.293z" fill="#ffffff" data-fill-palette-color="quaternary"></path><path d="M3.293 30.293l1.414 1.414 3-3c0.391-0.391 0.391-1.023 0-1.414l-3-3-1.414 1.414L4.586 27H0v2h4.586L3.293 30.293z" fill="#ffffff" data-fill-palette-color="quaternary"></path><path d="M52.293 7.707l1.414-1.414L52.414 5H56V3h-3.586l1.293-1.293-1.414-1.414-3 3c-0.391 0.391-0.391 1.023 0 1.414L52.293 7.707z" fill="#ffffff" data-fill-palette-color="quaternary"></path><path d="M59.707 35.707l-1.414-1.414-3 3c-0.391 0.391-0.391 1.023 0 1.414l3 3 1.414-1.414L58.414 39H64v-2h-5.586L59.707 35.707z" fill="#ffffff" data-fill-palette-color="quaternary"></path><path d="M53.293 20.707l3 3 1.414-1.414L56.414 21H62v-2h-5.586l1.293-1.293-1.414-1.414-3 3C52.902 19.684 52.902 20.316 53.293 20.707z" fill="#ffffff" data-fill-palette-color="quaternary"></path><rect y="13" width="2" height="2" fill="#ffffff" data-fill-palette-color="quaternary"></rect><rect x="8" y="7" width="2" height="2" fill="#ffffff" data-fill-palette-color="quaternary"></rect><rect x="4" y="7" width="2" height="2" fill="#ffffff" data-fill-palette-color="quaternary"></rect><rect x="58" y="3" width="2" height="2" fill="#ffffff" data-fill-palette-color="quaternary"></rect><rect x="62" y="3" width="2" height="2" fill="#ffffff" data-fill-palette-color="quaternary"></rect><rect y="7" width="2" height="2" fill="#ffffff" data-fill-palette-color="quaternary"></rect><rect x="5" y="1" width="8" height="2" fill="#ffffff" data-fill-palette-color="quaternary"></rect><rect x="15" y="1" width="2" height="2" fill="#ffffff" data-fill-palette-color="quaternary"></rect><rect x="4" y="18" width="2" height="2" fill="#ffffff" data-fill-palette-color="quaternary"></rect><rect y="18" width="2" height="2" fill="#ffffff" data-fill-palette-color="quaternary"></rect><rect x="31" y="36" width="2" height="2" fill="#ffffff" data-fill-palette-color="quaternary"></rect><rect x="31" y="40" width="2" height="2" fill="#ffffff" data-fill-palette-color="quaternary"></rect><rect x="31" y="44" width="2" height="2" fill="#ffffff" data-fill-palette-color="quaternary"></rect><path d="M39.293 26.293l-3 3 1.414 1.414L39 29.414V37h2v-7.586l1.293 1.293 1.414-1.414-3-3C40.316 25.902 39.684 25.902 39.293 26.293z" fill="#ffffff" data-fill-palette-color="quaternary"></path><rect x="39" y="39" width="2" height="2" fill="#ffffff" data-fill-palette-color="quaternary"></rect><rect x="39" y="43" width="2" height="2" fill="#ffffff" data-fill-palette-color="quaternary"></rect><path d="M23.293 26.293l-3 3 1.414 1.414L23 29.414V37h2v-7.586l1.293 1.293 1.414-1.414-3-3C24.316 25.902 23.684 25.902 23.293 26.293z" fill="#ffffff" data-fill-palette-color="quaternary"></path><rect x="23" y="39" width="2" height="2" fill="#ffffff" data-fill-palette-color="quaternary"></rect><rect x="23" y="43" width="2" height="2" fill="#ffffff" data-fill-palette-color="quaternary"></rect></g></svg></g></svg></g></svg></g></svg></g></svg></g><defs></defs></svg><rect width="395.52" height="105.86422206055191" fill="none" stroke="none" visibility="hidden"></rect></g></svg></g></svg>